#Comment line ignore any data following # character 
#Hierarchical Translation and Rotation (.htr) file 
[Header]	
#Header keywords are followed by a single value 
FileType HTR		#Single word string
DataType HTRS		#Translation followed by rotation and scale data
FileVersion 1		#integer
NumSegments 84		#integer
NumFrames 2		#integer
DataFrameRate 30		#integer, data frame rate in this file
EulerRotationOrder ZYX
CalibrationUnits mm
RotationUnits Degrees
GlobalAxisofGravity Y
BoneLengthAxis Y
ScaleFactor 1.00
[SegmentNames&Hierarchy]
#CHILD	PARENT
MASTER GLOBAL
root MASTER
chest root
L_mid_tent01 root
R_mid_tent01 root
spine01 root
Bip01_Neck chest
L_humerus chest
R_humerus chest
weapon_bone chest
Bip01_Head Bip01_Neck
eye_left_bone Bip01_Head
eye_right_bone Bip01_Head
L_forearm L_humerus
L_front_hand L_forearm
L_weapon_bone L_forearm
L_front_hand01_01 L_front_hand
L_front_hand02_01 L_front_hand
L_front_hand03_01 L_front_hand
L_front_hand01_02 L_front_hand01_01
L_front_hand02_02 L_front_hand02_01
L_front_hand03_02 L_front_hand03_01
R_forearm R_humerus
R_front_hand R_forearm
R_weapon_bone R_forearm
R_front_hand01_01 R_front_hand
R_front_hand02_01 R_front_hand
R_front_hand03_01 R_front_hand
R_front_hand01_02 R_front_hand01_01
R_front_hand02_02 R_front_hand02_01
R_front_hand03_02 R_front_hand03_01
null_rope01_connect L_mid_tent01
Rope1_Seg01 null_rope01_connect
Rope1_Seg02 Rope1_Seg01
Rope1_Seg03 Rope1_Seg02
Rope1_Seg04 Rope1_Seg03
Rope1_Seg05 Rope1_Seg04
Rope1_Seg06 Rope1_Seg05
Rope1_Seg07 Rope1_Seg06
Rope1_Seg09 Rope1_Seg07
L_mid_hand01 Rope1_Seg09
L_mid_hand02 Rope1_Seg09
L_mid_hand03 Rope1_Seg09
null_rope02_connect R_mid_tent01
Rope2_Seg01 null_rope02_connect
Rope2_Seg02 Rope2_Seg01
Rope2_Seg03 Rope2_Seg02
Rope2_Seg04 Rope2_Seg03
Rope2_Seg05 Rope2_Seg04
Rope2_Seg06 Rope2_Seg05
Rope2_Seg07 Rope2_Seg06
Rope2_Seg09 Rope2_Seg07
R_mid_hand01 Rope2_Seg09
R_mid_hand02 Rope2_Seg09
R_mid_hand03 Rope2_Seg09
spine02 spine01
spine03 spine02
pelvis spine03
null_rope03_connect pelvis
null_rope04_connect pelvis
Rope3_Seg01 null_rope03_connect
Rope3_Seg02 Rope3_Seg01
Rope3_Seg03 Rope3_Seg02
Rope3_Seg04 Rope3_Seg03
Rope3_Seg05 Rope3_Seg04
Rope3_Seg06 Rope3_Seg05
Rope3_Seg07 Rope3_Seg06
Rope3_Seg08 Rope3_Seg07
Rope3_Seg09 Rope3_Seg08
R_rear_hand01 Rope3_Seg09
R_rear_hand02 Rope3_Seg09
R_rear_hand03 Rope3_Seg09
Rope4_Seg01 null_rope04_connect
Rope4_Seg02 Rope4_Seg01
Rope4_Seg03 Rope4_Seg02
Rope4_Seg04 Rope4_Seg03
Rope4_Seg05 Rope4_Seg04
Rope4_Seg06 Rope4_Seg05
Rope4_Seg07 Rope4_Seg06
Rope4_Seg08 Rope4_Seg07
Rope4_Seg09 Rope4_Seg08
L_rear_hand01 Rope4_Seg09
L_rear_hand02 Rope4_Seg09
L_rear_hand03 Rope4_Seg09
[BasePosition]
#SegmentName Tx, Ty, Tz, Rx, Ry, Rz, BoneLength
MASTER 0.000000 0.000000 0.000000 -90.000000 0.000000 0.000000 10.000000 
root 0.000000 0.000000 0.000000 0.000000 0.000000 0.000000 10.000000 
chest 0.000000 0.000000 0.000000 0.000000 0.000000 0.000000 10.000000 
L_mid_tent01 0.000000 0.000000 0.000000 0.000000 0.000000 0.000000 10.000000 
R_mid_tent01 0.000000 0.000000 0.000000 0.000000 0.000000 0.000000 10.000000 
spine01 0.000000 0.000000 0.000000 0.000000 0.000000 0.000000 10.000000 
Bip01_Neck 0.000000 0.000000 0.000000 0.000000 0.000000 0.000000 10.000000 
L_humerus 0.000000 0.000000 0.000000 0.000000 0.000000 0.000000 10.000000 
R_humerus 0.000000 0.000000 0.000000 0.000000 0.000000 0.000000 10.000000 
weapon_bone 0.000000 0.000000 0.000000 0.000000 0.000000 0.000000 10.000000 
Bip01_Head 0.000000 0.000000 0.000000 0.000000 0.000000 0.000000 10.000000 
eye_left_bone 0.000000 0.000000 0.000000 0.000000 0.000000 0.000000 10.000000 
eye_right_bone 0.000000 0.000000 0.000000 0.000000 0.000000 0.000000 10.000000 
L_forearm 0.000000 0.000000 0.000000 0.000000 0.000000 0.000000 10.000000 
L_front_hand 0.000000 0.000000 0.000000 0.000000 0.000000 0.000000 10.000000 
L_weapon_bone 0.000000 0.000000 0.000000 0.000000 0.000000 0.000000 10.000000 
L_front_hand01_01 0.000000 0.000000 0.000000 0.000000 0.000000 0.000000 10.000000 
L_front_hand02_01 0.000000 0.000000 0.000000 0.000000 0.000000 0.000000 10.000000 
L_front_hand03_01 0.000000 0.000000 0.000000 0.000000 0.000000 0.000000 10.000000 
L_front_hand01_02 0.000000 0.000000 0.000000 0.000000 0.000000 0.000000 10.000000 
L_front_hand02_02 0.000000 0.000000 0.000000 0.000000 0.000000 0.000000 10.000000 
L_front_hand03_02 0.000000 0.000000 0.000000 0.000000 0.000000 0.000000 10.000000 
R_forearm 0.000000 0.000000 0.000000 0.000000 0.000000 0.000000 10.000000 
R_front_hand 0.000000 0.000000 0.000000 0.000000 0.000000 0.000000 10.000000 
R_weapon_bone 0.000000 0.000000 0.000000 0.000000 0.000000 0.000000 10.000000 
R_front_hand01_01 0.000000 0.000000 0.000000 0.000000 0.000000 0.000000 10.000000 
R_front_hand02_01 0.000000 0.000000 0.000000 0.000000 0.000000 0.000000 10.000000 
R_front_hand03_01 0.000000 0.000000 0.000000 0.000000 0.000000 0.000000 10.000000 
R_front_hand01_02 0.000000 0.000000 0.000000 0.000000 0.000000 0.000000 10.000000 
R_front_hand02_02 0.000000 0.000000 0.000000 0.000000 0.000000 0.000000 10.000000 
R_front_hand03_02 0.000000 0.000000 0.000000 0.000000 0.000000 0.000000 10.000000 
null_rope01_connect 0.000000 0.000000 0.000000 0.000000 0.000000 0.000000 10.000000 
Rope1_Seg01 0.000000 0.000000 0.000000 0.000000 0.000000 0.000000 10.000000 
Rope1_Seg02 0.000000 0.000000 0.000000 0.000000 0.000000 0.000000 10.000000 
Rope1_Seg03 0.000000 0.000000 0.000000 0.000000 0.000000 0.000000 10.000000 
Rope1_Seg04 0.000000 0.000000 0.000000 0.000000 0.000000 0.000000 10.000000 
Rope1_Seg05 0.000000 0.000000 0.000000 0.000000 0.000000 0.000000 10.000000 
Rope1_Seg06 0.000000 0.000000 0.000000 0.000000 0.000000 0.000000 10.000000 
Rope1_Seg07 0.000000 0.000000 0.000000 0.000000 0.000000 0.000000 10.000000 
Rope1_Seg09 0.000000 0.000000 0.000000 0.000000 0.000000 0.000000 10.000000 
L_mid_hand01 0.000000 0.000000 0.000000 0.000000 0.000000 0.000000 10.000000 
L_mid_hand02 0.000000 0.000000 0.000000 0.000000 0.000000 0.000000 10.000000 
L_mid_hand03 0.000000 0.000000 0.000000 0.000000 0.000000 0.000000 10.000000 
null_rope02_connect 0.000000 0.000000 0.000000 0.000000 0.000000 0.000000 10.000000 
Rope2_Seg01 0.000000 0.000000 0.000000 0.000000 0.000000 0.000000 10.000000 
Rope2_Seg02 0.000000 0.000000 0.000000 0.000000 0.000000 0.000000 10.000000 
Rope2_Seg03 0.000000 0.000000 0.000000 0.000000 0.000000 0.000000 10.000000 
Rope2_Seg04 0.000000 0.000000 0.000000 0.000000 0.000000 0.000000 10.000000 
Rope2_Seg05 0.000000 0.000000 0.000000 0.000000 0.000000 0.000000 10.000000 
Rope2_Seg06 0.000000 0.000000 0.000000 0.000000 0.000000 0.000000 10.000000 
Rope2_Seg07 0.000000 0.000000 0.000000 0.000000 0.000000 0.000000 10.000000 
Rope2_Seg09 0.000000 0.000000 0.000000 0.000000 0.000000 0.000000 10.000000 
R_mid_hand01 0.000000 0.000000 0.000000 0.000000 0.000000 0.000000 10.000000 
R_mid_hand02 0.000000 0.000000 0.000000 0.000000 0.000000 0.000000 10.000000 
R_mid_hand03 0.000000 0.000000 0.000000 0.000000 0.000000 0.000000 10.000000 
spine02 0.000000 0.000000 0.000000 0.000000 0.000000 0.000000 10.000000 
spine03 0.000000 0.000000 0.000000 0.000000 0.000000 0.000000 10.000000 
pelvis 0.000000 0.000000 0.000000 0.000000 0.000000 0.000000 10.000000 
null_rope03_connect 0.000000 0.000000 0.000000 0.000000 0.000000 0.000000 10.000000 
null_rope04_connect 0.000000 0.000000 0.000000 0.000000 0.000000 0.000000 10.000000 
Rope3_Seg01 0.000000 0.000000 0.000000 0.000000 0.000000 0.000000 10.000000 
Rope3_Seg02 0.000000 0.000000 0.000000 0.000000 0.000000 0.000000 10.000000 
Rope3_Seg03 0.000000 0.000000 0.000000 0.000000 0.000000 0.000000 10.000000 
Rope3_Seg04 0.000000 0.000000 0.000000 0.000000 0.000000 0.000000 10.000000 
Rope3_Seg05 0.000000 0.000000 0.000000 0.000000 0.000000 0.000000 10.000000 
Rope3_Seg06 0.000000 0.000000 0.000000 0.000000 0.000000 0.000000 10.000000 
Rope3_Seg07 0.000000 0.000000 0.000000 0.000000 0.000000 0.000000 10.000000 
Rope3_Seg08 0.000000 0.000000 0.000000 0.000000 0.000000 0.000000 10.000000 
Rope3_Seg09 0.000000 0.000000 0.000000 0.000000 0.000000 0.000000 10.000000 
R_rear_hand01 0.000000 0.000000 0.000000 0.000000 0.000000 0.000000 10.000000 
R_rear_hand02 0.000000 0.000000 0.000000 0.000000 0.000000 0.000000 10.000000 
R_rear_hand03 0.000000 0.000000 0.000000 0.000000 0.000000 0.000000 10.000000 
Rope4_Seg01 0.000000 0.000000 0.000000 0.000000 0.000000 0.000000 10.000000 
Rope4_Seg02 0.000000 0.000000 0.000000 0.000000 0.000000 0.000000 10.000000 
Rope4_Seg03 0.000000 0.000000 0.000000 0.000000 0.000000 0.000000 10.000000 
Rope4_Seg04 0.000000 0.000000 0.000000 0.000000 0.000000 0.000000 10.000000 
Rope4_Seg05 0.000000 0.000000 0.000000 0.000000 0.000000 0.000000 10.000000 
Rope4_Seg06 0.000000 0.000000 0.000000 0.000000 0.000000 0.000000 10.000000 
Rope4_Seg07 0.000000 0.000000 0.000000 0.000000 0.000000 0.000000 10.000000 
Rope4_Seg08 0.000000 0.000000 0.000000 0.000000 0.000000 0.000000 10.000000 
Rope4_Seg09 0.000000 0.000000 0.000000 0.000000 0.000000 0.000000 10.000000 
L_rear_hand01 0.000000 0.000000 0.000000 0.000000 0.000000 0.000000 10.000000 
L_rear_hand02 0.000000 0.000000 0.000000 0.000000 0.000000 0.000000 10.000000 
L_rear_hand03 0.000000 0.000000 0.000000 0.000000 0.000000 0.000000 10.000000 
#Beginning of Data. Separated by tabs
#Fr	Tx	Ty	Tz	Rx	Ry	Rz	SF
[MASTER]
78 0.000000 0.000000 0.000000 0.000000 -0.002347 -90.000000 0.000000
79 0.000000 0.000000 0.000000 0.000000 -0.002347 -90.000000 0.000000
[root]
78 -14.348907 7.074295 472.594574 -88.582230 -10.448836 179.361130 472.865265
79 -14.348907 6.994943 472.594574 -88.582230 -10.448835 179.361130 472.864105
[chest]
78 -84.512650 -34.090519 0.000000 3.028270 5.353997 173.891357 91.129311
79 -84.512650 -34.090519 0.000000 3.346691 5.312712 173.864990 91.129311
[L_mid_tent01]
78 27.299511 22.177458 -249.918259 -63.657536 18.686338 33.262241 252.381134
79 27.299511 22.177458 -249.918259 -63.657536 18.686338 33.262241 252.381134
[R_mid_tent01]
78 23.228794 24.509907 226.238495 -131.259216 -15.836094 39.582561 228.744751
79 23.228794 24.509907 226.238495 -131.259216 -15.836094 39.582561 228.744751
[spine01]
78 -0.361383 -0.195265 0.000000 0.001845 0.001451 13.654368 0.410763
79 -0.361383 -0.195265 0.000000 0.001845 0.001451 13.654368 0.410763
[Bip01_Neck]
78 165.484543 71.581718 0.000119 176.643677 -1.657967 43.431911 180.302734
79 165.484543 71.581718 0.000119 176.643677 -1.657967 43.431911 180.302734
[L_humerus]
78 -13.983130 -135.272980 -120.471481 162.736496 12.526387 -120.955750 181.680161
79 -13.983130 -135.272980 -120.471481 161.543259 13.716597 -121.478592 181.680161
[R_humerus]
78 -13.983309 -135.273102 125.287651 -166.639877 -8.867917 -124.441704 184.909012
79 -13.983309 -135.273102 125.287651 -165.348969 -9.935934 -124.981812 184.909012
[weapon_bone]
78 235.964890 -300.705902 0.000000 0.000000 -89.951546 -128.212341 382.234833
79 235.964890 -300.705902 0.000000 0.000000 -89.951546 -128.212341 382.234833
[Bip01_Head]
78 128.171936 128.412277 8.333419 1.938589 3.724703 -19.795940 181.623810
79 128.171936 128.412277 8.333419 1.938589 3.724703 -19.795940 181.623810
[eye_left_bone]
78 -24.626970 125.451866 -64.772606 0.000000 -90.000000 -99.840431 143.318359
79 -24.626970 125.451866 -64.772606 0.000000 -90.000000 -99.840431 143.318359
[eye_right_bone]
78 -24.626970 125.451866 64.327362 0.000000 -89.965736 80.156380 143.117676
79 -24.626970 125.451866 64.327362 0.000000 -89.965736 80.156380 143.117676
[L_forearm]
78 322.776093 0.000000 -0.000119 0.000617 -0.002265 -120.486725 322.776093
79 322.776093 0.000000 -0.000119 0.000609 -0.002267 -120.078583 322.776093
[L_front_hand]
78 241.149185 -0.042021 -3.300071 122.915199 -1.838513 -27.423925 241.171753
79 241.149185 -0.042021 -3.300071 124.177345 -1.837481 -27.423868 241.171753
[L_weapon_bone]
78 156.183838 0.000000 0.000000 0.000014 0.000007 0.000001 156.183838
79 156.183838 0.000000 0.000000 0.000014 0.000007 0.000001 156.183838
[L_front_hand01_01]
78 86.095154 20.947098 -0.655860 -0.366594 -0.477154 75.385574 88.609184
79 86.095154 20.947098 -0.655860 -0.366594 -0.477154 75.385574 88.609184
[L_front_hand02_01]
78 86.935165 -11.437475 24.513514 154.399796 -59.883835 -61.369587 91.046425
79 86.935165 -11.437475 24.513514 154.399796 -59.883835 -61.369587 91.046425
[L_front_hand03_01]
78 86.637497 -14.123976 -20.424902 -153.913849 58.118122 -62.702866 90.126129
79 86.637497 -14.123976 -20.424902 -153.913849 58.118122 -62.702866 90.126129
[L_front_hand01_02]
78 71.020905 -0.000179 0.000030 0.000334 -0.002323 -106.379684 71.020905
79 71.020905 -0.000179 0.000030 0.000334 -0.002323 -106.379684 71.020905
[L_front_hand02_02]
78 71.020927 -0.000119 0.000060 0.000334 -0.002323 -106.379684 71.020927
79 71.020927 -0.000119 0.000060 0.000334 -0.002323 -106.379684 71.020927
[L_front_hand03_02]
78 71.020905 -0.000060 0.000060 0.000334 -0.002323 -106.379684 71.020905
79 71.020905 -0.000060 0.000060 0.000334 -0.002323 -106.379684 71.020905
[R_forearm]
78 322.776428 -0.000060 0.000030 0.161361 0.136943 -131.384109 322.776428
79 322.776428 -0.000060 0.000030 0.161225 0.137103 -131.498047 322.776428
[R_front_hand]
78 238.847015 -0.006795 2.210259 -157.541916 -10.644301 -26.316534 238.857239
79 238.847015 -0.006795 2.210259 -158.810150 -10.643352 -26.312483 238.857239
[R_weapon_bone]
78 155.664093 0.002503 -0.000030 0.003487 0.001180 -90.988930 155.664078
79 155.664093 0.002503 -0.000030 0.003487 0.001180 -90.988930 155.664078
[R_front_hand01_01]
78 87.624611 14.231146 22.918642 -154.633499 -59.950619 61.746044 91.683487
79 87.624611 14.231146 22.918642 -154.633499 -59.950619 61.746044 91.683487
[R_front_hand02_01]
78 89.356956 14.367283 -19.491137 154.602661 58.302849 63.744389 92.579636
79 89.356956 14.367283 -19.491137 154.602661 58.302849 63.744389 92.579636
[R_front_hand03_01]
78 87.286232 -22.307278 -0.143439 0.162155 -0.423168 -75.767921 90.091743
79 87.286232 -22.307278 -0.143439 0.162155 -0.423168 -75.767921 90.091743
[R_front_hand01_02]
78 71.020905 0.000060 0.000119 0.002323 -0.000334 106.381714 71.020905
79 71.020905 0.000060 0.000119 0.002323 -0.000334 106.381714 71.020905
[R_front_hand02_02]
78 71.020844 -0.000030 -0.000119 0.002323 -0.000334 106.381714 71.020836
79 71.020844 -0.000030 -0.000119 0.002323 -0.000334 106.381714 71.020836
[R_front_hand03_02]
78 71.020905 0.000000 0.000030 0.002323 -0.000334 106.381714 71.020905
79 71.020905 0.000000 0.000030 0.002323 -0.000334 106.381714 71.020905
[null_rope01_connect]
78 328.732483 0.000000 -0.000238 -166.231216 26.298847 69.278114 328.732483
79 328.732483 0.000000 -0.000238 -166.231216 26.298841 69.278107 328.732483
[Rope1_Seg01]
78 0.000000 0.000000 0.000000 125.101852 -27.299906 -54.833103 0.000000
79 0.000000 0.000000 0.000000 124.334419 -26.510386 -53.912914 0.000000
[Rope1_Seg02]
78 139.999863 -0.000179 0.000000 -3.383134 -4.522933 -3.326452 139.999863
79 139.999863 -0.000179 0.000000 -3.182066 -4.463312 -3.187217 139.999863
[Rope1_Seg03]
78 139.999924 0.000060 -0.000060 -5.318850 -6.883117 -5.766944 139.999924
79 139.999924 0.000060 -0.000060 -5.020558 -6.799939 -5.494627 139.999924
[Rope1_Seg04]
78 139.999924 -0.000060 -0.000119 -8.608485 -11.523352 -11.489204 139.999924
79 139.999924 -0.000060 -0.000119 -8.266470 -11.501578 -10.881135 139.999924
[Rope1_Seg05]
78 139.999832 0.000119 -0.000060 -8.882170 -13.420269 -19.230015 139.999832
79 139.999832 0.000119 -0.000060 -8.993748 -13.962011 -18.623386 139.999832
[Rope1_Seg06]
78 139.999954 0.000119 -0.000060 -3.928643 -10.207047 -32.291309 139.999954
79 139.999954 0.000119 -0.000060 -4.237653 -10.810507 -32.473030 139.999954
[Rope1_Seg07]
78 139.999985 0.000060 0.000000 5.173596 -6.217692 -34.168465 139.999985
79 139.999985 0.000060 0.000000 4.995382 -6.457051 -34.637638 139.999985
[Rope1_Seg09]
78 121.602913 0.000119 -0.000089 -89.793175 -1.359789 0.847147 121.602913
79 121.602913 0.000119 -0.000089 -89.793175 -1.359789 0.847147 121.602913
[L_mid_hand01]
78 103.859421 1.038730 8.195221 109.056198 -40.604698 -13.201401 104.187431
79 103.859421 1.038730 8.195221 109.056198 -40.604698 -13.201401 104.187431
[L_mid_hand02]
78 105.572853 -4.139662 -10.864139 -146.713593 31.476528 -37.902313 106.211075
79 105.572853 -4.139662 -10.864139 -146.713593 31.476528 -37.902313 106.211075
[L_mid_hand03]
78 104.641464 17.579376 -3.913581 -14.267233 12.322316 43.898396 106.179977
79 104.641464 17.579376 -3.913581 -14.267233 12.322316 43.898396 106.179977
[null_rope02_connect]
78 328.732849 0.000179 -0.000119 -164.342651 -37.938038 110.680077 328.732849
79 328.732849 0.000179 -0.000119 -164.342651 -37.938038 110.680077 328.732849
[Rope2_Seg01]
78 -0.000038 -0.000114 0.000105 -75.044487 -43.362022 -98.623047 0.000160
79 -0.000038 -0.000114 0.000105 -75.400078 -43.514545 -98.309204 0.000160
[Rope2_Seg02]
78 139.999741 -0.000060 -0.000119 6.209698 4.906072 6.750838 139.999756
79 139.999741 -0.000060 -0.000119 6.292401 4.918412 6.805014 139.999756
[Rope2_Seg03]
78 140.000107 0.000030 0.000000 10.386824 10.561710 11.932687 140.000107
79 140.000107 0.000030 0.000000 10.561392 10.659833 12.060721 140.000107
[Rope2_Seg04]
78 139.999802 0.000000 -0.000060 14.901793 25.458359 21.162674 139.999802
79 139.999802 0.000000 -0.000060 15.107564 25.766808 21.386780 139.999802
[Rope2_Seg05]
78 139.999985 -0.000060 0.000119 3.666885 25.512236 13.980519 139.999985
79 139.999985 -0.000060 0.000119 3.567446 25.565020 13.873934 139.999985
[Rope2_Seg06]
78 139.999893 -0.000030 -0.000119 -1.735540 11.494638 9.028677 139.999893
79 139.999893 -0.000030 -0.000119 -1.753981 11.241232 8.784432 139.999893
[Rope2_Seg07]
78 139.999893 0.000060 -0.000060 -4.053391 11.808602 14.881514 139.999893
79 139.999893 0.000060 -0.000060 -4.004961 11.424443 14.638752 139.999893
[Rope2_Seg09]
78 121.338966 0.000089 -0.000060 33.793236 -1.359788 -0.847141 121.338966
79 121.338966 0.000089 -0.000060 33.793236 -1.359788 -0.847141 121.338966
[R_mid_hand01]
78 104.680779 11.144459 -10.335981 -37.204079 31.906813 37.576260 105.778534
79 104.680779 11.144459 -10.335981 -37.204079 31.906813 37.576260 105.778534
[R_mid_hand02]
78 104.070427 2.443552 8.231699 70.367462 -42.427391 14.067809 104.424065
79 104.070427 2.443552 8.231699 70.367462 -42.427391 14.067809 104.424065
[R_mid_hand03]
78 106.028137 -11.221827 -5.996406 -169.893616 12.226661 -47.211018 106.788818
79 106.028137 -11.221827 -5.996406 -169.893616 12.226661 -47.211018 106.788818
[spine02]
78 129.756927 0.001550 0.000119 -1.023899 -3.926965 6.770993 129.756927
79 129.756927 0.001550 0.000119 -1.023899 -3.926965 6.770993 129.756927
[spine03]
78 78.613846 0.087372 -4.898873 1.040681 4.146420 4.212376 78.766380
79 78.613846 0.087372 -4.898873 1.040681 4.146420 4.212376 78.766380
[pelvis]
78 169.435242 0.051022 0.000000 0.019518 -0.190233 -10.721436 169.435257
79 169.435242 0.051022 0.000000 0.019518 -0.190233 -10.721436 169.435257
[null_rope03_connect]
78 -1.257226 -2.466202 137.391083 21.146282 88.832657 -72.228729 137.418976
79 -1.257226 -2.466202 137.391083 21.146282 88.832657 -72.228729 137.418976
[null_rope04_connect]
78 -1.259640 -2.480268 -137.844437 21.146282 88.832657 -72.228729 137.872513
79 -1.259640 -2.480268 -137.844437 21.146282 88.832657 -72.228729 137.872513
[Rope3_Seg01]
78 0.000000 0.000000 0.000000 -138.120743 -44.487984 106.756142 0.000000
79 0.000000 0.000000 0.000000 -138.120743 -44.487984 106.756142 0.000000
[Rope3_Seg02]
78 139.999924 -0.000119 0.000060 3.745520 -14.663014 5.634119 139.999924
79 139.999924 -0.000119 0.000060 3.745520 -14.663014 5.634119 139.999924
[Rope3_Seg03]
78 139.999924 -0.000119 0.000119 5.737874 -20.423342 10.137849 139.999924
79 139.999924 -0.000119 0.000119 5.735952 -20.419832 10.142160 139.999924
[Rope3_Seg04]
78 139.999924 0.000119 0.000000 4.820138 -15.693019 10.924958 139.999924
79 139.999924 0.000119 0.000000 4.811731 -15.680940 10.945847 139.999924
[Rope3_Seg05]
78 139.999924 -0.000238 0.000060 4.223574 -14.883657 11.560570 139.999924
79 139.999924 -0.000238 0.000060 4.223588 -14.910822 11.539845 139.999924
[Rope3_Seg06]
78 139.999893 -0.000119 -0.000060 2.771170 -23.490639 22.232819 139.999893
79 139.999893 -0.000119 -0.000060 2.813676 -23.521481 22.121553 139.999893
[Rope3_Seg07]
78 139.999771 0.000060 -0.000119 0.763138 -13.717824 16.286051 139.999771
79 139.999771 0.000060 -0.000119 0.815590 -13.719818 16.213118 139.999771
[Rope3_Seg08]
78 139.999985 -0.000060 0.000000 0.427177 -5.887573 7.542328 139.999985
79 139.999985 -0.000060 0.000000 0.447818 -5.887996 7.526384 139.999985
[Rope3_Seg09]
78 90.185997 -0.000179 -0.000060 89.793228 -1.359877 -0.847183 90.185997
79 90.185997 -0.000179 -0.000060 89.793228 -1.359877 -0.847183 90.185997
[R_rear_hand01]
78 103.366196 -6.073594 -10.757982 -164.755127 19.627697 -40.352161 104.101845
79 103.366196 -6.073594 -10.757982 -164.755127 19.627697 -40.352161 104.101845
[R_rear_hand02]
78 100.509819 12.039542 -7.992327 -30.792652 24.782448 38.141541 101.543350
79 100.509819 12.039542 -7.992327 -30.792652 24.782448 38.141541 101.543350
[R_rear_hand03]
78 101.539970 5.215704 5.435467 82.448349 -41.048256 8.840378 101.819031
79 101.539970 5.215704 5.435467 82.448349 -41.048256 8.840378 101.819031
[Rope4_Seg01]
78 0.000010 0.000038 -0.000114 67.314407 -39.639919 53.885754 0.000121
79 0.000010 0.000038 -0.000114 68.351982 -39.972778 52.587967 0.000121
[Rope4_Seg02]
78 139.999985 0.000060 0.000119 -5.756943 3.984961 -9.315540 139.999985
79 139.999985 0.000060 0.000119 -6.044554 3.986588 -9.421303 139.999985
[Rope4_Seg03]
78 139.999924 0.000000 -0.000238 -8.590549 7.241349 -13.411090 139.999924
79 139.999924 0.000000 -0.000238 -9.143588 7.430498 -13.742877 139.999924
[Rope4_Seg04]
78 139.999985 0.000000 0.000119 -9.296430 12.667709 -14.834514 139.999985
79 139.999985 0.000000 0.000119 -10.228480 13.308997 -15.831228 139.999985
[Rope4_Seg05]
78 139.999802 -0.000060 -0.000119 -5.180480 11.121278 -10.988131 139.999802
79 139.999802 -0.000060 -0.000119 -5.327657 11.794828 -10.935987 139.999802
[Rope4_Seg06]
78 139.999924 0.000000 0.000060 -6.689240 13.581980 -20.089409 139.999924
79 139.999924 0.000000 0.000060 -5.293380 12.506372 -16.462641 139.999924
[Rope4_Seg07]
78 139.999802 0.000000 0.000000 -8.416021 21.832945 -32.487522 139.999802
79 139.999802 0.000000 0.000000 -7.795111 21.748306 -31.231270 139.999802
[Rope4_Seg08]
78 139.999924 0.000000 0.000119 -1.619737 11.355387 -13.280510 139.999924
79 139.999924 0.000000 0.000119 -1.541261 12.877607 -14.791079 139.999924
[Rope4_Seg09]
78 90.185791 0.000060 0.000060 -135.617828 2.228885 0.850567 90.185791
79 90.185791 0.000060 0.000060 -135.617828 2.228885 0.850567 90.185791
[L_rear_hand01]
78 101.696655 -8.392275 -7.654577 -31.684452 -23.583008 144.025742 102.329041
79 101.696655 -8.392275 -7.654577 -31.684452 -23.583008 144.025742 102.329041
[L_rear_hand02]
78 102.726799 -1.568258 5.773216 82.701553 38.753956 171.553619 102.900848
79 102.726799 -1.568258 5.773216 82.701553 38.753956 171.553619 102.900848
[L_rear_hand03]
78 104.552910 9.721220 -10.420293 -163.975403 -19.004421 -142.009338 105.519653
79 104.552910 9.721220 -10.420293 -163.975403 -19.004421 -142.009338 105.519653
